<?xml version="1.0" encoding="utf-8"?>
<!-- Generator: Adobe Illustrator 16.0.0, SVG Export Plug-In . SVG Version: 6.00 Build 0)  -->
<!DOCTYPE svg PUBLIC "-//W3C//DTD SVG 1.1//EN" "http://www.w3.org/Graphics/SVG/1.1/DTD/svg11.dtd">
<svg version="1.1" id="Layer_1" xmlns="http://www.w3.org/2000/svg" xmlns:xlink="http://www.w3.org/1999/xlink" x="0px" y="0px"
	 width="90px" height="90px" viewBox="0 0 90 90" enable-background="new 0 0 90 90" xml:space="preserve">
<g id="surface1_2_">
	<path fill="#D32F2F" d="M0,15h90v62.143H0V15z"/>
	<path fill="#D32F2F" d="M55.714,70.714c0,5.918-4.796,10.715-10.714,10.715s-10.714-4.797-10.714-10.715S39.082,60,45,60
		S55.714,64.796,55.714,70.714z"/>
	<path fill="#4C0808" d="M51.429,70.714c0,3.55-2.88,6.429-6.429,6.429s-6.429-2.879-6.429-6.429c0-3.549,2.88-6.428,6.429-6.428
		S51.429,67.165,51.429,70.714z"/>
	<path fill="#D7CCC8" d="M79.286,8.571L47.143,15h-4.285L10.714,8.571L6.429,19.286v51.428h77.143V19.286L79.286,8.571z"/>
	<path fill="#BCAAA4" d="M10.714,64.286h32.144v6.428h4.285v-6.428h32.144l4.285,6.428H6.429L10.714,64.286z"/>
	<path fill="#EFEBE9" d="M79.286,8.571c0,0-32.144,0-32.144,6.429s0,55.714,0,55.714c0-6.428,32.144-6.428,32.144-6.428V8.571z"/>
	<path fill="#EFEBE9" d="M10.714,8.571c0,0,32.144,0,32.144,6.429s0,55.714,0,55.714c0-6.428-32.144-6.428-32.144-6.428V8.571z"/>
	<path fill="#BCAAA4" d="M51.429,39.4c4.076-1.499,13.309-2.688,23.571-2.955v-4.303c-7.868,0.159-17.394,0.829-23.571,2.871V39.4z"
		/>
	<path fill="#BCAAA4" d="M51.429,47.972c4.076-1.498,13.309-2.688,23.571-2.955v-4.303c-7.868,0.159-17.394,0.829-23.571,2.871
		V47.972z"/>
	<path fill="#BCAAA4" d="M51.429,30.829C55.505,29.33,64.737,28.142,75,27.874v-4.303c-7.868,0.159-17.394,0.829-23.571,2.871
		V30.829z"/>
	<path fill="#BCAAA4" d="M51.429,17.871v4.386C55.505,20.759,64.737,19.57,75,19.303V15C67.132,15.159,57.606,15.829,51.429,17.871z
		"/>
	<path fill="#BCAAA4" d="M62.143,50.072c-3.976,0.444-7.734,1.105-10.714,2.085v4.386c2.234-0.829,6.052-1.549,10.714-2.084V50.072z
		"/>
	<path fill="#BCAAA4" d="M38.571,39.4C34.495,37.901,25.263,36.713,15,36.445v-4.303c7.868,0.159,17.394,0.829,23.571,2.871V39.4z"
		/>
	<path fill="#BCAAA4" d="M38.571,47.972C34.495,46.474,25.263,45.284,15,45.017v-4.303c7.868,0.159,17.394,0.829,23.571,2.871
		V47.972z"/>
	<path fill="#BCAAA4" d="M38.571,56.543C34.495,55.045,25.263,53.856,15,53.588v-4.302c7.868,0.158,17.394,0.828,23.571,2.871
		V56.543z"/>
	<path fill="#BCAAA4" d="M38.571,30.829C34.495,29.33,25.263,28.142,15,27.874v-4.303c7.868,0.159,17.394,0.829,23.571,2.871V30.829
		z"/>
	<path fill="#BCAAA4" d="M38.571,17.871v4.386C34.495,20.759,25.263,19.57,15,19.303V15C22.868,15.159,32.394,15.829,38.571,17.871z
		"/>
	<path fill="#BCAAA4" d="M42.857,15h4.285v55.714h-4.285V15z"/>
</g>
</svg>
