<?xml version="1.0" encoding="utf-8"?>
<!-- Generator: Adobe Illustrator 16.0.0, SVG Export Plug-In . SVG Version: 6.00 Build 0)  -->
<!DOCTYPE svg PUBLIC "-//W3C//DTD SVG 1.1//EN" "http://www.w3.org/Graphics/SVG/1.1/DTD/svg11.dtd">
<svg version="1.1" id="Layer_1" xmlns="http://www.w3.org/2000/svg" xmlns:xlink="http://www.w3.org/1999/xlink" x="0px" y="0px"
	 width="90px" height="90px" viewBox="0 0 90 90" enable-background="new 0 0 90 90" xml:space="preserve">
<g id="surface1">
	<path fill="#42A5F5" d="M0,20.25L20.25,0L90,69.75L69.75,90L0,20.25z"/>
	<path fill="#1565C0" d="M27.395,27.404l-3.181-3.182l10.125-10.125l3.182,3.182L27.395,27.404z"/>
	<path fill="#1565C0" d="M65.979,45.729l3.182,3.182l-5.625,5.625l-3.182-3.182L65.979,45.729z"/>
	<path fill="#1565C0" d="M27.659,7.409l3.182,3.182l-5.625,5.625l-3.182-3.182L27.659,7.409z"/>
	<path fill="#1565C0" d="M79.541,59.291l3.191,3.182l-5.634,5.625l-3.182-3.182L79.541,59.291z"/>
	<path fill="#1565C0" d="M41.159,20.909l3.182,3.182l-5.625,5.625l-3.182-3.182L41.159,20.909z"/>
	<path fill="#1565C0" d="M62.604,62.604l10.125-10.125l3.182,3.182L65.786,65.786L62.604,62.604z"/>
	<path fill="#E57373" d="M86.81,11.399L78.601,3.19c-1.248-1.257-3.288-1.257-4.536,0l-3.867,3.867l12.744,12.744l3.867-3.867
		C88.066,14.687,88.066,12.656,86.81,11.399"/>
	<path fill="#FF9800" d="M6.539,70.708l57.288-57.287L76.57,26.174L19.283,83.461L6.539,70.708z"/>
	<path fill="#B0BEC5" d="M82.942,19.802l-6.372,6.372L63.818,13.438l6.372-6.381L82.942,19.802z"/>
	<path fill="#FFC107" d="M6.539,70.717L2.25,87.75l17.033-4.289L6.539,70.717z"/>
	<path fill="#37474F" d="M4.421,79.137L2.25,87.75l8.613-2.17L4.421,79.137z"/>
</g>
</svg>
