<?xml version="1.0" encoding="utf-8"?>
<!-- Generator: Adobe Illustrator 16.0.0, SVG Export Plug-In . SVG Version: 6.00 Build 0)  -->
<!DOCTYPE svg PUBLIC "-//W3C//DTD SVG 1.1//EN" "http://www.w3.org/Graphics/SVG/1.1/DTD/svg11.dtd">
<svg version="1.1" id="Layer_1" xmlns="http://www.w3.org/2000/svg" xmlns:xlink="http://www.w3.org/1999/xlink" x="0px" y="0px"
	 width="90px" height="90px" viewBox="0 0 90 90" enable-background="new 0 0 90 90" xml:space="preserve">
<g id="surface1_1_">
	<path fill="#90CAF9" d="M57.5,37.5h-25L3.018,72.861c-0.127,0.117-0.234,0.254-0.352,0.381L2.07,73.916h0.049
		C0.811,75.596,0,77.695,0,80c0,5.527,4.473,10,10,10h70c5.527,0,10-4.473,10-10c0-2.227-0.752-4.258-1.982-5.918h0.039
		l-0.459-0.508c-0.225-0.273-0.449-0.547-0.703-0.791L57.5,37.5z"/>
	<path fill="#90CAF9" d="M32.5,7.5h25v33.545h-25V7.5z"/>
	<path fill="#90CAF9" d="M62.5,5c0,2.764-2.236,5-5,5h-25c-2.764,0-5-2.236-5-5s2.236-5,5-5h25C60.264,0,62.5,2.236,62.5,5z"/>
	<path fill="#F50057" d="M84.004,77.051l-0.039-0.039l-0.078-0.098l-0.059-0.059l-0.039-0.049l-0.127-0.146
		c-0.078-0.088-0.146-0.186-0.234-0.273l-0.146-0.137l-0.117-0.127L66.68,56.25H23.311L6.738,76.201l-0.127,0.127
		c-0.098,0.107-0.166,0.195-0.244,0.283L6.27,76.719l-0.195,0.254C5.586,77.607,5,78.643,5,80c0,2.754,2.246,5,5,5h70
		c2.754,0,5-2.246,5-5C85,78.682,84.453,77.666,84.004,77.051z"/>
	<path fill="#F48FB1" d="M65,72.5c0,4.141-3.359,7.5-7.5,7.5S50,76.641,50,72.5s3.359-7.5,7.5-7.5S65,68.359,65,72.5z"/>
	<path fill="#F8BBD0" d="M45,65c0,2.764-2.236,5-5,5s-5-2.236-5-5s2.236-5,5-5S45,62.236,45,65z"/>
	<path fill="#E3F2FD" d="M52.5,42.5c0,2.764-2.236,5-5,5s-5-2.236-5-5s2.236-5,5-5S52.5,39.736,52.5,42.5z"/>
	<path fill="#E3F2FD" d="M47.5,26.25c0,2.07-1.68,3.75-3.75,3.75S40,28.32,40,26.25s1.68-3.75,3.75-3.75S47.5,24.18,47.5,26.25z"/>
</g>
</svg>
